<svg xmlns="http://www.w3.org/2000/svg" width="100" height="90.43" viewBox="0 0 100 90.43">
  <defs>
    <style>
      .\31 495b76d-a2b0-465a-97da-5a124772729f {
        fill: #fff;
      }

      .\30 bc6230a-2af4-4038-abd8-f4d2e0bfbfde {
        fill: #ff782c;
      }

      .\38 569fbb0-b3eb-4257-9534-07c97736aecb {
        fill: #2d324b;
      }
    </style>
  </defs>
  <title>blaze_verify_logo</title>
  <g id="881a74ea-19d8-42c1-88a6-ec5ad5119c67" data-name="Layer 2">
    <g id="39bbbe5b-988c-48bd-a539-9c35cdf73337" data-name="&lt;Group&gt;">
      <g id="cee4486b-6fa7-487d-bcad-a163c1253c26" data-name="&lt;Group&gt;">
        <path class="0bc6230a-2af4-4038-abd8-f4d2e0bfbfde" d="M96,38.35V84.5L69.51,66.18a20.94,20.94,0,0,0,1-6.41,20.42,20.42,0,0,0-.19-2.84Z"/>
        <polygon class="1495b76d-a2b0-465a-97da-5a124772729f" points="94.61 34.61 89.64 38.22 89.64 31.21 94.61 34.61"/>
        <path class="1495b76d-a2b0-465a-97da-5a124772729f" d="M85.68,17.49V41.06L69.34,52.91a20.54,20.54,0,0,0-38.71-.07L13.94,40.78V17.49a.82.82,0,0,1,.82-.81H84.87A.81.81,0,0,1,85.68,17.49Zm-12,16.39v-4H26.31v4Zm0-8.84v-4H41.81v4Z"/>
        <rect class="8569fbb0-b3eb-4257-9534-07c97736aecb" x="26.31" y="29.92" width="47.33" height="3.96"/>
        <rect class="8569fbb0-b3eb-4257-9534-07c97736aecb" x="41.81" y="21.08" width="31.83" height="3.96"/>
        <path class="8569fbb0-b3eb-4257-9534-07c97736aecb" d="M68,69.64a20.55,20.55,0,0,1-36,0L7.66,86.5H92.31ZM50,39.21a20.62,20.62,0,0,1,19.38,13.7L85.68,41.06V17.49a.81.81,0,0,0-.81-.81H14.76a.82.82,0,0,0-.82.81V40.78L30.63,52.84A20.59,20.59,0,0,1,50,39.21Zm50-3.52V86.24a4.2,4.2,0,0,1-4.22,4.19H4.22A4.2,4.2,0,0,1,0,86.24L0,35.51a4.18,4.18,0,0,1,1.84-3.46L10,26.46V16.93a4.18,4.18,0,0,1,4.19-4.19H30L47.45.76A4,4,0,0,1,49.81,0,4.19,4.19,0,0,1,52.2.76l17.46,12H85.43a4.2,4.2,0,0,1,4.21,4.19v9.48l8.48,5.81A4.23,4.23,0,0,1,99.94,35.69ZM96,84.5V38.35L70.33,56.93a20.42,20.42,0,0,1,.19,2.84,20.94,20.94,0,0,1-1,6.41ZM89.64,38.22l5-3.61-5-3.4ZM37,12.74H62.7L50.26,4.22a.75.75,0,0,0-.9,0Zm29.62,47A16.61,16.61,0,1,0,50,76.37,16.61,16.61,0,0,0,66.57,59.77ZM4,84.5,30.44,66.18a20.94,20.94,0,0,1-1-6.41,18.5,18.5,0,0,1,.21-2.94L4,38.27Zm6-46.6V31.24L5.25,34.48Z"/>
        <path class="0bc6230a-2af4-4038-abd8-f4d2e0bfbfde" d="M50,80.33A20.37,20.37,0,0,0,68,69.64L92.31,86.5H7.66L31.94,69.67A20.45,20.45,0,0,0,50,80.33Z"/>
        <path class="1495b76d-a2b0-465a-97da-5a124772729f" d="M50.26,4.22,62.7,12.74H37L49.36,4.22a.75.75,0,0,1,.9,0Z"/>
        <path class="0bc6230a-2af4-4038-abd8-f4d2e0bfbfde" d="M53.54,59.78a9.14,9.14,0,0,1,.28,4.51,13,13,0,0,0-4.46-6.71C50.63,59.31,49,63,47.89,64.3c.71-1.78-1-3.87-1-3.87a9.32,9.32,0,0,1-1.32,4.48c-1.42,2.61-2.41,3.5-.34,6.69-6.46-3.29-5.72-9.14-4.46-11.55a11.27,11.27,0,0,0,1.2-5,6.64,6.64,0,0,1,1.17,3.14c.88-1.38,2.26-4,1.55-6a4,4,0,0,1,1.89,2.32,11.69,11.69,0,0,0,.8-6.74c6.08,3.44,6.88,8.54,6.88,8.54,1.34-1.63.38-4,.31-4.23A14.94,14.94,0,0,1,59.84,61c1.35,6.16-4.87,9.81-6.27,10.75l0-.18C57.25,68.47,57,63,53.54,59.78Z"/>
        <path class="0bc6230a-2af4-4038-abd8-f4d2e0bfbfde" d="M30.44,66.18,4,84.5,4,38.27,29.64,56.83a18.5,18.5,0,0,0-.21,2.94A20.94,20.94,0,0,0,30.44,66.18Z"/>
        <polygon class="1495b76d-a2b0-465a-97da-5a124772729f" points="10.01 31.24 10.01 37.9 5.25 34.48 10.01 31.24"/>
      </g>
    </g>
  </g>
</svg>
