<?xml version="1.0" encoding="utf-8"?>
<!-- Generator: Adobe Illustrator 16.0.0, SVG Export Plug-In . SVG Version: 6.00 Build 0)  -->
<!DOCTYPE svg PUBLIC "-//W3C//DTD SVG 1.1//EN" "http://www.w3.org/Graphics/SVG/1.1/DTD/svg11.dtd">
<svg version="1.1" id="Layer_1" xmlns="http://www.w3.org/2000/svg" xmlns:xlink="http://www.w3.org/1999/xlink" x="0px" y="0px"
	 width="190px" height="35px" viewBox="0 0 190 35" enable-background="new 0 0 190 35" xml:space="preserve">
<g>
	<g>
		<path fill="#ED6640" d="M21.533,2.2c-1.257,1.227-2.039,2.934-2.039,4.829v11.224c0,1.649-1.344,2.993-2.993,2.993H8.976
			c-1.649,0-2.992-1.344-2.992-2.993c0-1.649,1.343-2.994,2.992-2.994h8.25V9.274h-8.25c-0.506,0-1.007,0.041-1.497,0.121
			C3.235,10.111,0,13.807,0,18.253c0,3.909,2.499,7.233,5.984,8.462c0.481,0.17,0.981,0.311,1.495,0.387
			c0.49,0.09,0.991,0.135,1.497,0.135h7.525c0.513,0,1.01-0.045,1.496-0.135c0.513-0.076,1.014-0.217,1.498-0.387
			c3.485-1.229,5.985-4.553,5.985-8.462v-2.994c3.309,0,5.987-2.679,5.987-5.984H25.48V7.028c0-0.415,0.336-0.745,0.745-0.745h1.5
			c1.825,0,3.484-0.723,4.697-1.908c1.087-1.059,1.822-2.484,1.994-4.082h-8.19C24.406,0.294,22.747,1.022,21.533,2.2"/>
		<path fill="#ED6640" d="M8.976,28.727c-1.651,0-2.992,1.336-2.992,2.988c0,1.65,1.341,2.992,2.992,2.992
			c1.654,0,2.995-1.342,2.995-2.994C11.971,30.063,10.629,28.727,8.976,28.727"/>
		<path fill="#ED6640" d="M17.953,28.727c-1.653,0-2.988,1.336-2.988,2.988c0,1.65,1.335,2.992,2.988,2.992
			c1.658,0,2.993-1.342,2.993-2.994C20.945,30.063,19.611,28.727,17.953,28.727"/>
	</g>
	<g>
		<path fill="#ED6640" d="M50.728,30.502c-1.706,0-3.243-0.27-4.599-0.793c-1.363-0.523-2.509-1.297-3.452-2.311
			c-0.943-1.023-1.665-2.265-2.171-3.73c-0.501-1.467-0.752-3.154-0.752-5.064c0-1.902,0.287-3.591,0.869-5.059
			c0.582-1.472,1.373-2.714,2.381-3.731c1.013-1.02,2.194-1.794,3.551-2.316c1.362-0.526,2.817-0.794,4.372-0.794
			c0.943,0,1.798,0.077,2.561,0.218c0.768,0.143,1.438,0.302,2.008,0.478c0.57,0.176,1.042,0.36,1.415,0.558
			c0.372,0.199,0.634,0.339,0.786,0.425l-1.216,3.388c-0.524-0.332-1.275-0.64-2.252-0.938c-0.973-0.296-2.032-0.44-3.166-0.44
			c-0.99,0-1.909,0.168-2.765,0.504c-0.849,0.344-1.589,0.85-2.218,1.533c-0.623,0.675-1.112,1.53-1.461,2.56
			c-0.35,1.032-0.523,2.225-0.523,3.58c0,1.212,0.133,2.316,0.407,3.316c0.273,1.014,0.698,1.881,1.269,2.613
			c0.57,0.734,1.292,1.305,2.165,1.711c0.879,0.408,1.932,0.611,3.155,0.611c1.468,0,2.667-0.146,3.586-0.449
			c0.919-0.291,1.629-0.576,2.136-0.832l1.118,3.375c-0.268,0.184-0.624,0.363-1.072,0.537c-0.449,0.176-0.978,0.344-1.595,0.506
			c-0.611,0.164-1.304,0.291-2.065,0.398C52.427,30.449,51.606,30.502,50.728,30.502z"/>
		<path fill="#ED6640" d="M67.096,12.395c1.315,0,2.421,0.162,3.318,0.493c0.896,0.327,1.618,0.787,2.153,1.38
			c0.536,0.589,0.919,1.311,1.146,2.154c0.233,0.844,0.35,1.764,0.35,2.775v10.42c-0.618,0.127-1.543,0.285-2.777,0.473
			c-1.239,0.184-2.637,0.285-4.19,0.285c-1.03,0-1.974-0.105-2.829-0.303c-0.855-0.199-1.583-0.512-2.183-0.955
			c-0.606-0.432-1.077-1-1.414-1.699c-0.338-0.711-0.506-1.572-0.506-2.598c0-0.988,0.187-1.828,0.571-2.502
			c0.384-0.676,0.908-1.23,1.563-1.658c0.654-0.432,1.417-0.736,2.285-0.92c0.867-0.188,1.769-0.287,2.712-0.287
			c0.436,0,0.897,0.031,1.38,0.088c0.483,0.061,0.996,0.146,1.542,0.279v-0.656c0-0.457-0.053-0.896-0.163-1.316
			c-0.111-0.41-0.304-0.779-0.577-1.099c-0.274-0.315-0.635-0.564-1.083-0.739c-0.448-0.176-1.013-0.263-1.693-0.263
			c-0.919,0-1.764,0.063-2.532,0.199c-0.763,0.129-1.392,0.284-1.872,0.46l-0.491-3.22c0.501-0.182,1.233-0.354,2.2-0.53
			C64.971,12.481,66.001,12.395,67.096,12.395z M67.421,27.221c1.229,0,2.159-0.072,2.794-0.199v-4.412
			c-0.218-0.059-0.536-0.129-0.955-0.19c-0.414-0.063-0.874-0.101-1.379-0.101c-0.437,0-0.878,0.035-1.327,0.101
			c-0.454,0.063-0.855,0.187-1.216,0.365c-0.361,0.176-0.653,0.414-0.874,0.739c-0.219,0.314-0.326,0.718-0.326,1.193
			c0,0.941,0.292,1.598,0.884,1.961C65.617,27.039,66.414,27.221,67.421,27.221z"/>
		<path fill="#ED6640" d="M88.72,16.404c-0.332-0.111-0.786-0.227-1.369-0.343c-0.577-0.123-1.251-0.185-2.02-0.185
			c-0.437,0-0.902,0.044-1.396,0.133c-0.489,0.087-0.839,0.161-1.037,0.231v13.771h-3.976V13.646
			c0.769-0.286,1.729-0.554,2.876-0.809c1.153-0.252,2.427-0.38,3.831-0.38c0.261,0,0.569,0.019,0.919,0.053
			c0.349,0.029,0.704,0.076,1.053,0.129c0.349,0.06,0.687,0.124,1.019,0.199c0.326,0.076,0.587,0.15,0.786,0.215L88.72,16.404z"/>
		<path fill="#ED6640" d="M91.974,8.285l3.975-0.659v5.193h6.111v3.324h-6.111v7.001c0,1.373,0.215,2.362,0.658,2.957
			c0.437,0.584,1.182,0.883,2.231,0.883c0.722,0,1.364-0.08,1.925-0.23c0.559-0.152,1.006-0.293,1.332-0.432l0.651,3.154
			c-0.453,0.196-1.062,0.401-1.806,0.61s-1.621,0.31-2.631,0.31c-1.225,0-2.246-0.166-3.074-0.49
			c-0.821-0.324-1.472-0.809-1.955-1.426c-0.478-0.627-0.822-1.385-1.019-2.271c-0.192-0.885-0.291-1.901-0.291-3.045L91.974,8.285
			L91.974,8.285z"/>
		<path fill="#ED6640" d="M106.1,30.014V7.235h14.401v3.517h-10.257v5.813h9.104v3.517h-9.104v9.93H106.1V30.014z"/>
		<path fill="#ED6640" d="M129.988,30.338c-1.176-0.023-2.16-0.15-2.94-0.395c-0.778-0.244-1.391-0.59-1.856-1.031
			c-0.453-0.453-0.781-1.012-0.969-1.674c-0.185-0.678-0.275-1.439-0.275-2.291V5.163l3.98-0.657v19.686
			c0,0.479,0.028,0.886,0.111,1.211c0.081,0.339,0.216,0.611,0.413,0.845c0.198,0.231,0.46,0.407,0.797,0.524
			c0.351,0.115,0.774,0.218,1.298,0.285L129.988,30.338z"/>
		<path fill="#ED6640" d="M149.313,21.398c0,1.362-0.196,2.596-0.595,3.713c-0.383,1.117-0.94,2.074-1.671,2.865
			c-0.727,0.778-1.593,1.395-2.604,1.838c-1.025,0.43-2.149,0.651-3.371,0.651c-1.234,0-2.354-0.223-3.354-0.651
			c-1.014-0.443-1.872-1.06-2.596-1.838c-0.722-0.791-1.286-1.746-1.692-2.865c-0.408-1.117-0.611-2.351-0.611-3.713
			c0-1.361,0.203-2.59,0.611-3.696c0.406-1.105,0.978-2.055,1.711-2.846c0.733-0.786,1.601-1.392,2.613-1.822
			c1.001-0.425,2.105-0.64,3.318-0.64c1.199,0,2.311,0.215,3.335,0.64c1.013,0.431,1.893,1.037,2.614,1.822
			c0.721,0.791,1.285,1.742,1.692,2.846C149.107,18.809,149.313,20.035,149.313,21.398z M145.238,21.398
			c0-1.711-0.367-3.063-1.102-4.057c-0.732-1.002-1.75-1.497-3.066-1.497c-1.315,0-2.346,0.495-3.078,1.497
			c-0.734,0.993-1.102,2.346-1.102,4.057c0,1.735,0.368,3.096,1.102,4.108c0.732,1,1.765,1.515,3.078,1.515
			c1.316,0,2.334-0.515,3.066-1.515C144.871,24.494,145.238,23.135,145.238,21.398z"/>
		<path fill="#ED6640" d="M163.336,19.197c-0.513,1.922-1.054,3.801-1.633,5.633c-0.572,1.836-1.146,3.553-1.717,5.184h-3.271
			c-0.431-1.014-0.898-2.166-1.376-3.459c-0.489-1.293-0.969-2.664-1.446-4.137c-0.488-1.475-0.969-3.01-1.459-4.634
			c-0.477-1.624-0.942-3.276-1.408-4.965h4.203c0.199,0.924,0.434,1.914,0.701,2.973c0.258,1.067,0.538,2.148,0.818,3.259
			c0.293,1.107,0.586,2.184,0.889,3.232c0.316,1.059,0.622,2.014,0.926,2.9c0.34-1.017,0.66-2.05,0.976-3.136
			c0.313-1.069,0.625-2.144,0.903-3.211c0.293-1.077,0.556-2.126,0.813-3.144c0.258-1.021,0.473-1.973,0.67-2.876h3.063
			c0.197,0.902,0.418,1.855,0.65,2.876c0.243,1.018,0.506,2.066,0.771,3.144c0.278,1.067,0.569,2.142,0.883,3.211
			c0.326,1.086,0.646,2.119,0.97,3.136c0.295-0.888,0.586-1.843,0.891-2.9c0.315-1.049,0.613-2.125,0.906-3.232
			c0.305-1.11,0.58-2.191,0.848-3.259c0.265-1.059,0.494-2.049,0.693-2.973h4.108c-0.456,1.688-0.935,3.342-1.411,4.965
			c-0.49,1.624-0.967,3.159-1.456,4.634c-0.479,1.473-0.957,2.844-1.448,4.137c-0.478,1.293-0.955,2.445-1.41,3.459h-3.235
			c-0.57-1.631-1.146-3.346-1.75-5.184C164.389,22.998,163.836,21.119,163.336,19.197z"/>
		<path fill="#ED6640" d="M183.004,27.148c1.047,0,1.816-0.121,2.292-0.377c0.49-0.258,0.724-0.681,0.724-1.299
			c0-0.57-0.25-1.033-0.762-1.408c-0.525-0.373-1.369-0.781-2.558-1.224c-0.722-0.256-1.38-0.541-1.983-0.832
			c-0.605-0.303-1.125-0.646-1.566-1.043c-0.432-0.396-0.773-0.866-1.03-1.426s-0.377-1.239-0.377-2.056
			c0-1.577,0.581-2.816,1.746-3.731c1.149-0.906,2.735-1.36,4.726-1.36c1.014,0,1.979,0.094,2.899,0.279
			c0.921,0.187,1.606,0.366,2.061,0.541l-0.723,3.22c-0.431-0.193-0.988-0.372-1.677-0.542c-0.676-0.162-1.467-0.244-2.362-0.244
			c-0.813,0-1.468,0.137-1.968,0.414c-0.514,0.272-0.756,0.691-0.756,1.264c0,0.284,0.052,0.535,0.146,0.756
			c0.095,0.222,0.272,0.425,0.506,0.61c0.244,0.188,0.56,0.373,0.954,0.559c0.396,0.188,0.873,0.379,1.443,0.57
			c0.943,0.354,1.746,0.699,2.398,1.037c0.663,0.336,1.204,0.721,1.635,1.151c0.42,0.418,0.74,0.916,0.938,1.464
			c0.198,0.547,0.29,1.197,0.29,1.967c0,1.641-0.611,2.895-1.82,3.729c-1.224,0.853-2.953,1.265-5.209,1.265
			c-1.515,0-2.725-0.123-3.646-0.377c-0.923-0.246-1.571-0.447-1.943-0.601l0.687-3.328c0.595,0.244,1.3,0.478,2.127,0.697
			C181.007,27.045,181.945,27.148,183.004,27.148z"/>
	</g>
</g>
</svg>
