<?xml version="1.0" encoding="UTF-8"?>
<svg width="146px" height="40px" viewBox="0 0 146 40" version="1.1" xmlns="http://www.w3.org/2000/svg" xmlns:xlink="http://www.w3.org/1999/xlink">
    <defs></defs>
    <g id="Page-1" stroke="none" stroke-width="1" fill="none" fill-rule="evenodd">
        <g id="home-320" transform="translate(-16.000000, -15.000000)">
            <g id="header" transform="translate(-10.000000, -108.000000)">
                <g transform="translate(10.000000, 108.000000)" id="logo">
                    <g transform="translate(16.000000, 15.000000)">
                        <path d="M56.420021,26.2179343 C61.150421,26.2179343 63.515621,23.8085486 63.515621,18.9905057 C63.515621,14.1921343 61.150421,11.79222 56.420021,11.79222 L52.828421,11.79222 L52.828421,26.2179343 L56.420021,26.2179343 Z M49.543421,28.8123771 C49.222221,28.5012771 49.061621,28.0641343 49.061621,27.50022 L49.061621,10.5099343 C49.061621,9.94674857 49.222221,9.50887714 49.543421,9.19923429 C49.864621,8.88813429 50.307001,8.73222 50.872021,8.73222 L56.653621,8.73222 C60.021111,8.73222 62.634511,9.63127714 64.493821,11.4279343 C66.352401,13.22532 67.282421,15.7461771 67.282421,18.9905057 C67.282421,22.2552343 66.352401,24.7855629 64.493821,26.58222 C62.634511,28.3796057 60.021111,29.2779343 56.653621,29.2779343 L50.872021,29.2779343 C50.307001,29.2779343 49.864621,29.1227486 49.543421,28.8123771 L49.543421,28.8123771 Z M79.412174,25.5185057 C80.034864,24.7425771 80.346574,23.5950771 80.346574,22.0796486 C80.346574,20.58462 80.034864,19.44222 79.412174,18.6553629 C78.788754,17.8685057 77.893774,17.4750771 76.725774,17.4750771 C75.557774,17.4750771 74.656954,17.8685057 74.024774,18.6553629 C73.391864,19.44222 73.075774,20.58462 73.075774,22.0796486 C73.075774,23.5950771 73.386754,24.7425771 74.010174,25.5185057 C74.632864,26.2958914 75.528574,26.6849486 76.696574,26.6849486 C77.883554,26.6849486 78.788754,26.2958914 79.412174,25.5185057 M72.885974,28.6076486 C71.785864,28.0058486 70.933954,27.1417629 70.330974,26.0146629 C69.727264,24.8875629 69.425774,23.5761343 69.425774,22.0796486 C69.425774,20.58462 69.727264,19.2782914 70.330974,18.1599343 C70.933954,17.0430343 71.785864,16.18332 72.885974,15.5807914 C73.985354,14.9789914 75.265774,14.6773629 76.725774,14.6773629 C78.185774,14.6773629 79.465464,14.9789914 80.565574,15.5807914 C81.664954,16.18332 82.511754,17.0430343 83.105974,18.1599343 C83.699464,19.2782914 83.996574,20.58462 83.996574,22.0796486 C83.996574,23.5761343 83.699464,24.8875629 83.105974,26.0146629 C82.511754,27.1417629 81.664954,28.0058486 80.565574,28.6076486 C79.465464,29.2101771 78.185774,29.5103486 76.725774,29.5103486 C75.265774,29.5103486 73.985354,29.2101771 72.885974,28.6076486 M89.045108,28.6077943 C87.964708,28.0059943 87.132508,27.1506514 86.548508,26.0424943 C85.964508,24.9357943 85.672508,23.6440371 85.672508,22.1672229 C85.672508,20.6911371 85.979108,19.38408 86.592308,18.2475086 C87.205508,17.1109371 88.066908,16.23228 89.176508,15.61008 C90.286108,14.9886086 91.560688,14.6775086 93.001708,14.6775086 C93.760908,14.6775086 94.524488,14.78388 95.293908,14.9973514 C96.062598,15.21228 96.739308,15.5037086 97.323308,15.8730943 C97.945998,16.2803657 98.257708,16.7947371 98.257708,17.4169371 C98.257708,17.8446086 98.155508,18.1892229 97.951108,18.4515086 C97.746708,18.7137943 97.478798,18.8456657 97.148108,18.8456657 C96.933488,18.8456657 96.710108,18.7968514 96.476508,18.6984943 C96.242908,18.6023229 96.009308,18.4850229 95.775708,18.3495086 C95.347198,18.0966943 94.938398,17.8977943 94.549308,17.7528086 C94.159488,17.6056371 93.711998,17.5335086 93.206108,17.5335086 C91.998688,17.5335086 91.069398,17.9269371 90.417508,18.7137943 C89.764888,19.5006514 89.439308,20.6328514 89.439308,22.1089371 C89.439308,23.56608 89.764888,24.68808 90.417508,25.4749371 C91.069398,26.2617943 91.998688,26.6544943 93.206108,26.6544943 C93.692288,26.6544943 94.125908,26.5823657 94.505508,26.43738 C94.885108,26.2902086 95.308508,26.0920371 95.775708,25.8392229 C96.067708,25.6643657 96.320288,25.5332229 96.534908,25.4457943 C96.748798,25.3583657 96.962688,25.3139229 97.177308,25.3139229 C97.488288,25.3139229 97.751088,25.4508943 97.965708,25.7226514 C98.179598,25.9944086 98.286908,26.3346514 98.286908,26.7426514 C98.286908,27.0734229 98.213908,27.3590229 98.067908,27.6023657 C97.921908,27.8457086 97.683198,28.06428 97.352508,28.2588086 C96.748798,28.6471371 96.047998,28.9531371 95.250108,29.17608 C94.451488,29.3990229 93.633888,29.5104943 92.797308,29.5104943 C91.375998,29.5104943 90.125508,29.2103229 89.045108,28.6077943 M100.578962,28.2585171 C99.955542,27.8891314 99.644562,27.36456 99.644562,26.6848029 C99.644562,26.2964743 99.751142,25.9802743 99.965762,25.7369314 C100.179652,25.4943171 100.442452,25.3726457 100.754162,25.3726457 C101.084852,25.3726457 101.542562,25.52856 102.126562,25.83966 C102.749252,26.1310886 103.318652,26.35476 103.834762,26.5099457 C104.350142,26.6644029 105.007142,26.7430886 105.805762,26.7430886 C106.623362,26.7430886 107.260652,26.6068457 107.718362,26.33436 C108.175342,26.0626029 108.404562,25.6844743 108.404562,25.1977886 C108.404562,24.8677457 108.311852,24.60546 108.127162,24.4109314 C107.941742,24.2171314 107.611052,24.0371743 107.134362,23.8717886 C106.656942,23.7071314 105.932052,23.5177029 104.958962,23.3035029 C103.225942,22.9537886 101.984942,22.45836 101.235962,21.8172171 C100.486252,21.1760743 100.111762,20.2923171 100.111762,19.1659457 C100.111762,18.3106029 100.364342,17.5383171 100.870962,16.8490886 C101.376852,16.1591314 102.072542,15.62436 102.958762,15.2462314 C103.844252,14.8666457 104.851652,14.6772171 105.980962,14.6772171 C106.798562,14.6772171 107.586962,14.7799457 108.346162,14.9832171 C109.105362,15.1879457 109.786452,15.4844743 110.390162,15.8728029 C111.012852,16.2611314 111.324562,16.7755029 111.324562,17.4166457 C111.324562,17.8057029 111.217252,18.1313743 111.003362,18.3929314 C110.788742,18.6552171 110.525942,18.7870886 110.214962,18.7870886 C110.000342,18.7870886 109.791562,18.7426457 109.587162,18.6552171 C109.382762,18.5677886 109.124342,18.4373743 108.813362,18.2617886 C108.248342,17.97036 107.762162,17.7525171 107.353362,17.6060743 C106.944562,17.4610886 106.437942,17.3882314 105.834962,17.3882314 C105.114452,17.3882314 104.545052,17.5332171 104.126762,17.8253743 C103.707742,18.1168029 103.498962,18.5153314 103.498962,19.0195029 C103.498962,19.50546 103.712852,19.8748457 104.141362,20.12766 C104.569142,20.3804743 105.396962,20.63256 106.623362,20.8846457 C107.927142,21.1571314 108.949142,21.4682314 109.689362,21.8172171 C110.428852,22.16766 110.959562,22.6040743 111.280762,23.1286457 C111.601962,23.6539457 111.762562,24.3242314 111.762562,25.1395029 C111.762562,26.4611314 111.212142,27.5197457 110.112762,28.3168029 C109.012652,29.11386 107.547542,29.5109314 105.718162,29.5109314 C103.596052,29.5109314 101.882742,29.09346 100.578962,28.2585171 M114.623286,29.0012957 C114.282376,28.7003957 114.113016,28.2683529 114.113016,27.7044386 L114.113016,16.4545671 C114.113016,15.89211 114.282376,15.4644386 114.623286,15.17301 C114.964196,14.8815814 115.397816,14.7358671 115.922686,14.7358671 C116.448286,14.7358671 116.886286,14.8815814 117.236686,15.17301 C117.587816,15.4644386 117.763016,15.89211 117.763016,16.4545671 L117.763016,27.7044386 C117.763016,28.2683529 117.587816,28.7003957 117.236686,29.0012957 C116.886286,29.3021957 116.448286,29.45301 115.922686,29.45301 C115.397816,29.45301 114.964196,29.3021957 114.623286,29.0012957 M114.345886,11.60301 C113.956066,11.2438243 113.761886,10.7724386 113.761886,10.1895814 C113.761886,9.60672429 113.956066,9.14043857 114.345886,8.79072429 C114.734976,8.44028143 115.260576,8.26615286 115.922686,8.26615286 C116.565086,8.26615286 117.085576,8.44028143 117.484886,8.79072429 C117.884196,9.14043857 118.083486,9.60672429 118.083486,10.1895814 C118.083486,10.7724386 117.888576,11.2438243 117.499486,11.60301 C117.109666,11.9621957 116.584796,12.1414243 115.922686,12.1414243 C115.260576,12.1414243 114.734976,11.9621957 114.345886,11.60301 M126.548493,12.25836 C126.139693,12.7443171 125.935293,13.4437457 125.935293,14.3573743 L125.935293,15.02766 L128.418023,15.02766 C129.507913,15.02766 130.052493,15.4844743 130.052493,16.3966457 C130.052493,17.3102743 129.507913,17.7670886 128.418023,17.7670886 L125.935293,17.7670886 L125.935293,27.7040743 C125.935293,28.2687171 125.765203,28.69566 125.424293,28.9870886 C125.083383,29.2777886 124.650493,29.4242314 124.124893,29.4242314 C123.599293,29.4242314 123.161293,29.2777886 122.811623,28.9870886 C122.460493,28.69566 122.285293,28.2687171 122.285293,27.7040743 L122.285293,17.7670886 L120.825293,17.7670886 C119.734673,17.7670886 119.190093,17.3102743 119.190093,16.3966457 C119.190093,15.4844743 119.734673,15.02766 120.825293,15.02766 L122.285293,15.02766 L122.285293,14.82366 C122.285293,12.9971314 122.767093,11.5640314 123.731423,10.52436 C124.694293,9.48541714 126.052093,8.89746 127.804093,8.76121714 L128.563293,8.70293143 C129.341473,8.64537429 129.891893,8.72770286 130.213823,8.95137429 C130.534293,9.17504571 130.695623,9.51893143 130.695623,9.98594571 C130.695623,10.8208886 130.217473,11.2871743 129.264093,11.3848029 L128.505623,11.4430886 C127.609183,11.5013743 126.958023,11.7731314 126.548493,12.25836 M142.902902,15.0125786 C143.165702,14.8479214 143.453322,14.7648643 143.765032,14.7648643 C144.212522,14.7648643 144.616212,14.9156786 144.976832,15.2165786 C145.336722,15.5182071 145.516302,15.8919643 145.516302,16.3385786 C145.516302,16.5527786 145.457902,16.7757214 145.341832,17.0088643 L137.369502,33.6785786 C137.038812,34.3386643 136.523432,34.6687071 135.822632,34.6687071 C135.374412,34.6687071 134.979482,34.5280929 134.640032,34.2461357 C134.299122,33.9649071 134.128302,33.6100929 134.128302,33.18315 C134.128302,32.96895 134.187432,32.7263357 134.304232,32.4545786 L136.289102,28.28715 L130.857902,17.0088643 C130.760082,16.8150643 130.712632,16.5913929 130.712632,16.3385786 C130.712632,15.8919643 130.902432,15.5131071 131.281302,15.2027357 C131.661632,14.8916357 132.093792,14.7357214 132.580702,14.7357214 C132.911392,14.7357214 133.213612,14.81805 133.486632,14.9834357 C133.758922,15.1488214 133.972812,15.4060071 134.128302,15.75645 L138.216302,24.7608643 L142.275832,15.7848643 C142.431322,15.43515 142.640832,15.1786929 142.902902,15.0125786" id="Combined-Shape" fill="#3A4763"></path>
                        <path d="M34.150787,22.8226457 L22.867177,34.0841743 C21.054587,35.8924886 18.104657,35.8924886 16.291337,34.0841743 L5.007727,22.8226457 C3.195137,21.0136029 3.195137,18.0694457 5.007727,16.2596743 L16.291337,4.99814571 C17.197997,4.09398857 18.388627,3.64154571 19.579257,3.64154571 C20.769887,3.64154571 21.960517,4.09398857 22.867177,4.99814571 L34.150787,16.2596743 C35.963377,18.0694457 35.963377,21.0136029 34.150787,22.8226457 M36.731337,13.6841743 L25.447727,2.42264571 C22.212367,-0.80784 16.946877,-0.80784 13.710787,2.42264571 L2.427177,13.6841743 C-0.808913,16.9139314 -0.808913,22.1691171 2.427177,25.3981457 L13.710787,36.6596743 C15.328467,38.2749171 17.453497,39.0821743 19.579257,39.0821743 C21.705017,39.0821743 23.830047,38.2749171 25.447727,36.6596743 L36.731337,25.3981457 C39.967427,22.1691171 39.967427,16.9139314 36.731337,13.6841743 M25.940769,19.7233757 L18.849549,26.8014471 L16.502599,24.45909 C15.793039,23.75019 14.631609,23.75019 13.922049,24.45909 C13.211759,25.16799 13.211759,26.3264186 13.922049,27.03459 L17.477879,30.58419 C17.574969,30.68109 17.681549,30.7612329 17.792509,30.8319043 C18.504989,31.3477329 19.511659,31.2916329 20.152599,30.6519471 L28.522049,22.2988757 C29.231609,21.5907043 29.231609,20.4322757 28.522049,19.7233757 C27.811759,19.0144757 26.650329,19.0144757 25.940769,19.7233757" id="Combined-Shape" fill="#28B766"></path>
                    </g>
                </g>
            </g>
        </g>
    </g>
</svg>