<svg width="64" height="66" viewBox="0 0 64 66" xmlns="http://www.w3.org/2000/svg"><g id="Logo" fill="none" fill-rule="evenodd"><g id="GraficaLogo"><path d="M43.56 63.223c0 1.368-1.24 2.455-2.84 2.455H22.68c-1.6 0-2.84-1.087-2.84-2.455h23.72z" id="Neck" fill="#436482" fill-rule="nonzero"/><g id="EarDx" transform="translate(56 14.19)" fill-rule="nonzero"><path id="Shape" fill="#436482" d="M3.12 23.945H1.2v2.093h3.84V4.427H3.12z"/><path d="M3.96 8.451c2.2 0 3.96-1.851 3.96-4.105C7.92 2.093 6.16.241 3.96.241S0 2.052 0 4.306C0 6.56 1.76 8.451 3.96 8.451z" id="Oval" fill="#FF5263"/><path d="M1.88 28.573v-7.002c0-1.449-.84-2.656-1.88-2.656V31.27c1.04 0 1.88-1.248 1.88-2.697z" id="Shape_1_" fill="#436482"/></g><g id="EarSx" transform="translate(0 14.19)" fill-rule="nonzero"><path id="Shape_2_" fill="#436482" d="M4.88 4.306H2.96v21.611H6.8v-2.052H4.88z"/><ellipse id="Oval_1_" fill="#FF5263" cx="3.96" cy="4.306" rx="3.96" ry="4.105"/><path d="M5.92 28.493V21.49c0-1.449.84-2.656 1.88-2.656V31.19c-1.04-.04-1.88-1.288-1.88-2.696z" id="Shape_3_" fill="#436482"/></g><g id="Face" transform="translate(7.926 12.965)"><g id="RectangleSx_1_" stroke="#436482" stroke-width="1.778" fill="#E4F1FB" fill-rule="nonzero"><path d="M12.24.282h23.72c6.56 0 11.84 5.352 11.84 11.912v25.515c0 6.6-5.32 11.912-11.84 11.912H12.24C5.68 49.62.4 44.268.4 37.709V12.234C.36 5.634 5.68.282 12.24.282z" id="Shape"/></g><path d="M12.24.282h23.72c6.56 0 11.84 5.352 11.84 11.912v25.515c0 6.6-5.32 11.912-11.84 11.912H12.24C5.68 49.62.4 44.268.4 37.709V12.234C.36 5.634 5.68.282 12.24.282z" id="path-3_1_" fill="#7EB2D8" fill-rule="nonzero"/><path d="M14.28 1.207h21.64c6.56 0 11.84 5.353 11.84 11.913v23.623c0 6.6-5.32 11.912-11.84 11.912H14.28c-6.56 0-11.84-5.353-11.84-11.912V13.12c0-6.6 5.32-11.913 11.84-11.913z" id="path-1" fill="#7EB2D8" fill-rule="nonzero"/><path d="M37.84 1.368c-.6-.08-1.24-.16-1.88-.16H14.28C7.72 1.207 2.44 6.56 2.44 13.12v23.623c0 6.6 5.32 11.912 11.84 11.912h21.64c.76 0 1.48-.08 2.2-.201 3.96-1.932 6.72-5.997 6.72-10.745V12.234c-.04-4.87-2.88-9.014-7-10.866z" id="Shape" fill="#8AC7F1" fill-rule="nonzero"/><path d="M12.24.282h23.72c6.56 0 11.84 5.352 11.84 11.912v25.515c0 6.6-5.32 11.912-11.84 11.912H12.24C5.68 49.62.4 44.268.4 37.709V12.234C.36 5.634 5.68.282 12.24.282z" id="Shape" stroke="#436482" stroke-width="1.778"/><g id="Eye_sx" transform="translate(7.2 14.085)" fill-rule="nonzero"><ellipse id="Oval_3_" fill="#436482" cx="6.2" cy="6.359" rx="5.92" ry="6.157"/><ellipse id="Oval_4_" fill="#FFF" cx="6.2" cy="6.359" rx="2.28" ry="2.374"/></g><g id="Eye_dx" transform="translate(28 14.085)" fill-rule="nonzero"><path d="M6.16 12.516c-3.24 0-5.92-2.777-5.92-6.157C.24 2.978 2.92.2 6.16.2c3.24 0 5.92 2.777 5.92 6.158 0 3.38-2.68 6.157-5.92 6.157" id="Shape_4_" fill="#436482"/><ellipse id="Oval_5_" fill="#FFF" cx="6.16" cy="6.359" rx="2.28" ry="2.374"/></g><g id="Mounth" transform="translate(6.138 30.478)" fill-rule="nonzero"><path d="M5.64 13.361C-1.68 13.361-1.68 0 5.64 0h24.2c7.32 0 7.32 13.361 0 13.361H5.64" id="Shape_5_" fill="#436482"/><path d="M6.28 11.67c-5.92 0-5.92-10.26 0-10.26H29c5.92 0 5.92 10.262 0 10.262H6.28" id="Shape_6_" fill="#FFF"/><path d="M6.96 9.699c0 1.247-1.96 1.247-1.96 0V3.46c0-1.248 1.96-1.248 1.96 0v6.238" id="Shape_7_" fill="#436482"/><path d="M11.6 9.699c0 1.247-1.96 1.247-1.96 0V3.46c0-1.248 1.96-1.248 1.96 0v6.238" id="Shape_8_" fill="#436482"/><path d="M16.24 9.699c0 1.247-1.96 1.247-1.96 0V3.46c0-1.248 1.96-1.248 1.96 0v6.238" id="Shape_9_" fill="#436482"/><path d="M21 9.699c0 1.247-1.96 1.247-1.96 0V3.46c0-1.248 1.96-1.248 1.96 0v6.238" id="Shape_10_" fill="#436482"/><path d="M25.64 9.699c0 1.247-1.96 1.247-1.96 0V3.46c0-1.248 1.96-1.248 1.96 0v6.238" id="Shape_11_" fill="#436482"/><path d="M30.28 9.699c0 1.247-1.96 1.247-1.96 0V3.46c0-1.248 1.96-1.248 1.96 0v6.238" id="Shape_12_" fill="#436482"/></g></g><path d="M56.72 12.033c-.68-1.046-1.6-1.73-2.68-2.254-3.36-1.73-11.44-1.328-12.16-5.875-.88-5.876-5.8.12-6.68.12C34.12 4.024 33.6 0 31.56 0c-2.16 0-2.68 4.024-3.64 4.024-.88 0-5.84-5.956-6.72-.12-.68 4.426-8.88 4.105-12.16 5.875-1 .523-1.96 1.248-2.68 2.254-.48.805.6 1.65 1.2.926 1.6-2.053 4.76-2.455 7-2.898 1.88-.402 3.96-.604 5.84-1.449 2.56-1.046 2.48-5.03 3.24-5.03.6 0 2.68 3.098 4.44 3.098 1.6 0 2.56-3.823 3.44-3.823.88 0 1.88 3.823 3.44 3.823 1.88 0 3.96-3.098 4.56-3.098.8 0 .68 4.024 3.24 5.03 1.76.805 3.84 1.047 5.84 1.449 2.28.523 5.52.805 7 2.898.52.724 1.6-.202 1.12-.926" id="Electricity" fill="#2399F1" fill-rule="nonzero"/></g></g></svg>