<?xml version="1.0" encoding="utf-8"?>
<!-- Generator: Adobe Illustrator 16.0.0, SVG Export Plug-In . SVG Version: 6.00 Build 0)  -->
<!DOCTYPE svg PUBLIC "-//W3C//DTD SVG 1.1//EN" "http://www.w3.org/Graphics/SVG/1.1/DTD/svg11.dtd">
<svg version="1.1" id="Layer_1" xmlns="http://www.w3.org/2000/svg" xmlns:xlink="http://www.w3.org/1999/xlink" x="0px" y="0px"
	 width="319px" height="98px" viewBox="0 0 319 98" enable-background="new 0 0 319 98" xml:space="preserve">
<path fill="#5E98F8" d="M62.426,0.976H12.828c-6.465,0-11.725,5.259-11.725,11.723v72.919c0,6.465,5.26,11.725,11.725,11.725h58.907
	c6.464,0,11.723-5.194,11.723-11.579V22.153L62.426,0.976z M71.734,91.193H12.828c-2.998,0-5.437-2.438-5.437-5.434V12.84
	c0-3.048,2.388-5.436,5.437-5.436h47.054l17.285,17.287V85.76C77.167,88.757,74.73,91.193,71.734,91.193z"/>
<g>
	<polygon fill="#5E98F8" points="36.847,66.459 20.976,51.016 26.981,45.012 37.419,55.021 59.723,32.143 65.299,37.292 	"/>
</g>
<g>
	<path fill="#686A6B" d="M126.215,37.755v22.667c0,2.247-0.277,4.279-0.83,6.096c-0.553,1.814-1.409,3.354-2.567,4.615
		c-1.159,1.262-2.619,2.238-4.383,2.932c-1.764,0.69-3.856,1.037-6.276,1.037c-1.003,0-2.066-0.086-3.19-0.26
		c-1.124-0.174-2.23-0.433-3.32-0.777c-1.089-0.347-2.135-0.778-3.138-1.297c-1.003-0.52-1.902-1.106-2.697-1.765l3.579-4.823
		c1.21,1.141,2.576,2.014,4.098,2.619c1.521,0.604,3.061,0.908,4.617,0.908c1.486,0,2.74-0.218,3.76-0.65
		c1.02-0.436,1.833-1.033,2.438-1.797c0.604-0.764,1.038-1.666,1.297-2.707c0.259-1.041,0.389-2.187,0.389-3.437v-1.821h-0.104
		c-0.899,1.223-2.049,2.157-3.449,2.803c-1.4,0.646-2.965,0.971-4.694,0.971c-1.867,0-3.562-0.346-5.083-1.037
		c-1.522-0.691-2.81-1.625-3.864-2.803c-1.055-1.174-1.876-2.549-2.464-4.123c-0.588-1.572-0.882-3.241-0.882-5.006
		c0-1.797,0.285-3.492,0.856-5.083c0.57-1.59,1.382-2.974,2.438-4.149c1.054-1.175,2.334-2.109,3.838-2.801
		c1.504-0.691,3.19-1.038,5.058-1.038c1.764,0,3.405,0.363,4.928,1.089c1.521,0.726,2.731,1.85,3.631,3.372h0.104v-3.735H126.215z
		 M112.936,42.112c-1.141,0-2.152,0.208-3.034,0.621c-0.882,0.413-1.625,0.973-2.23,1.68s-1.072,1.542-1.4,2.507
		c-0.329,0.965-0.493,2-0.493,3.102c0,1,0.164,1.965,0.493,2.896c0.328,0.931,0.795,1.767,1.4,2.508
		c0.605,0.74,1.349,1.336,2.23,1.783c0.882,0.448,1.875,0.672,2.982,0.672c1.141,0,2.17-0.214,3.086-0.646s1.694-1.008,2.334-1.731
		c0.64-0.726,1.132-1.56,1.479-2.508c0.345-0.947,0.519-1.938,0.519-2.974c0-1.067-0.173-2.084-0.519-3.05
		c-0.346-0.964-0.839-1.809-1.479-2.533c-0.64-0.724-1.409-1.293-2.308-1.706S114.078,42.112,112.936,42.112z"/>
	<path fill="#686A6B" d="M130.571,29.3c0-1.002,0.371-1.875,1.115-2.62c0.743-0.743,1.686-1.115,2.827-1.115
		c1.141,0,2.101,0.355,2.879,1.063c0.778,0.709,1.167,1.6,1.167,2.671c0,1.072-0.389,1.963-1.167,2.671
		c-0.778,0.709-1.738,1.063-2.879,1.063c-1.141,0-2.083-0.371-2.827-1.115C130.942,31.176,130.571,30.304,130.571,29.3z
		 M131.453,37.755h6.224v24.897h-6.224V37.755z"/>
	<path fill="#686A6B" d="M168.229,62.652h-5.914v-3.734h-0.104c-0.865,1.452-2.066,2.561-3.604,3.318
		c-1.539,0.762-3.19,1.143-4.954,1.143c-1.902,0-3.605-0.355-5.109-1.062c-1.504-0.709-2.784-1.66-3.838-2.854
		c-1.055-1.192-1.867-2.593-2.438-4.201c-0.571-1.606-0.856-3.327-0.856-5.161c0-1.832,0.293-3.543,0.882-5.135
		c0.587-1.59,1.417-2.974,2.49-4.149c1.071-1.175,2.351-2.101,3.838-2.775c1.486-0.674,3.112-1.012,4.875-1.012
		c1.141,0,2.161,0.13,3.061,0.389c0.898,0.259,1.686,0.58,2.36,0.959c0.674,0.381,1.252,0.796,1.738,1.245
		c0.482,0.45,0.882,0.882,1.191,1.297h0.156v-17.48h6.225V62.652L168.229,62.652z M147.74,50.1c0,0.969,0.146,1.938,0.441,2.905
		c0.293,0.968,0.734,1.833,1.322,2.593c0.588,0.762,1.331,1.385,2.23,1.868c0.899,0.484,1.953,0.726,3.164,0.726
		c1.141,0,2.161-0.232,3.061-0.699c0.899-0.467,1.668-1.08,2.308-1.842c0.642-0.76,1.123-1.615,1.453-2.567
		c0.328-0.95,0.492-1.91,0.492-2.878c0-0.968-0.164-1.937-0.492-2.905c-0.33-0.967-0.812-1.833-1.453-2.593
		c-0.64-0.76-1.409-1.383-2.308-1.867c-0.9-0.484-1.919-0.727-3.061-0.727c-1.211,0-2.265,0.234-3.164,0.701
		c-0.899,0.467-1.643,1.081-2.23,1.841c-0.588,0.761-1.029,1.617-1.322,2.567C147.886,48.173,147.74,49.132,147.74,50.1z"/>
	<path fill="#686A6B" d="M198.777,62.652h-5.912v-3.734h-0.104c-0.865,1.452-2.068,2.561-3.605,3.318
		c-1.539,0.762-3.189,1.143-4.953,1.143c-1.902,0-3.605-0.355-5.109-1.062c-1.504-0.709-2.783-1.66-3.838-2.854
		c-1.056-1.192-1.867-2.593-2.438-4.201c-0.57-1.606-0.855-3.327-0.855-5.161c0-1.832,0.293-3.543,0.883-5.135
		c0.588-1.59,1.416-2.974,2.488-4.149c1.07-1.175,2.352-2.101,3.839-2.775c1.486-0.674,3.112-1.012,4.876-1.012
		c1.141,0,2.16,0.13,3.061,0.389c0.899,0.259,1.687,0.58,2.359,0.959c0.674,0.381,1.254,0.796,1.737,1.245
		c0.483,0.45,0.882,0.882,1.192,1.297h0.156v-17.48h6.225v39.213H198.777z M178.29,50.1c0,0.969,0.146,1.938,0.44,2.905
		c0.293,0.968,0.733,1.833,1.322,2.593c0.588,0.762,1.33,1.385,2.23,1.868c0.898,0.484,1.953,0.726,3.164,0.726
		c1.141,0,2.16-0.232,3.06-0.699c0.9-0.467,1.668-1.08,2.31-1.842c0.64-0.76,1.123-1.615,1.451-2.567
		c0.328-0.95,0.493-1.91,0.493-2.878c0-0.968-0.165-1.937-0.493-2.905c-0.328-0.967-0.812-1.833-1.451-2.593
		c-0.642-0.76-1.409-1.383-2.31-1.867c-0.899-0.484-1.919-0.727-3.06-0.727c-1.211,0-2.266,0.234-3.164,0.701
		c-0.9,0.467-1.645,1.081-2.23,1.841c-0.589,0.761-1.029,1.617-1.322,2.567C178.438,48.173,178.29,49.132,178.29,50.1z"/>
	<path fill="#686A6B" d="M200.282,37.755h6.897l6.951,18.103h0.104l6.173-18.103h6.483l-11.773,30.24
		c-0.45,1.141-0.934,2.151-1.453,3.034c-0.52,0.882-1.141,1.625-1.867,2.229s-1.582,1.063-2.566,1.374
		c-0.985,0.312-2.17,0.467-3.554,0.467c-0.519,0-1.047-0.024-1.581-0.076c-0.537-0.053-1.082-0.147-1.635-0.285l0.52-5.396
		c0.414,0.138,0.82,0.233,1.219,0.285s0.77,0.078,1.115,0.078c0.656,0,1.209-0.078,1.66-0.233c0.448-0.156,0.83-0.397,1.141-0.727
		c0.312-0.329,0.588-0.735,0.83-1.219c0.24-0.485,0.5-1.057,0.777-1.713l1.245-3.164L200.282,37.755z"/>
	<path fill="#686A6B" d="M243.747,59.488h-0.155c-0.621,1.106-1.626,2.015-3.009,2.724c-1.383,0.708-2.956,1.062-4.72,1.062
		c-1.004,0-2.049-0.129-3.139-0.389s-2.093-0.691-3.009-1.297c-0.917-0.604-1.678-1.4-2.282-2.386s-0.908-2.204-0.908-3.657
		c0-1.867,0.527-3.354,1.582-4.46c1.056-1.106,2.412-1.954,4.072-2.542c1.659-0.588,3.502-0.977,5.523-1.167
		c2.023-0.19,4.003-0.286,5.939-0.286v-0.622c0-1.556-0.562-2.706-1.687-3.45c-1.124-0.743-2.464-1.115-4.021-1.115
		c-1.314,0-2.576,0.277-3.787,0.83c-1.211,0.554-2.213,1.228-3.008,2.023l-3.217-3.787c1.418-1.312,3.053-2.299,4.902-2.957
		c1.85-0.656,3.726-0.985,5.628-0.985c2.212,0,4.036,0.311,5.472,0.934s2.567,1.436,3.397,2.438
		c0.829,1.003,1.409,2.126,1.737,3.372c0.328,1.245,0.492,2.49,0.492,3.734V62.65h-5.81v-3.162H243.747z M243.645,51.293h-1.4
		c-1.003,0-2.059,0.044-3.164,0.13c-1.107,0.087-2.127,0.277-3.061,0.57c-0.935,0.294-1.713,0.709-2.334,1.245
		c-0.623,0.535-0.935,1.271-0.935,2.203c0,0.59,0.13,1.082,0.39,1.479s0.596,0.718,1.012,0.959c0.414,0.243,0.882,0.415,1.399,0.521
		c0.519,0.104,1.038,0.154,1.558,0.154c2.144,0,3.769-0.57,4.875-1.712c1.105-1.141,1.66-2.696,1.66-4.668V51.293z"/>
	<path fill="#686A6B" d="M260.449,37.755v3.476h0.156c0.311-0.484,0.717-0.977,1.219-1.479c0.501-0.501,1.115-0.951,1.841-1.349
		c0.728-0.397,1.548-0.726,2.464-0.985s1.945-0.389,3.087-0.389c1.765,0,3.39,0.337,4.875,1.012c1.486,0.674,2.767,1.6,3.839,2.775
		c1.071,1.176,1.901,2.559,2.489,4.149c0.588,1.591,0.882,3.303,0.882,5.135c0,1.834-0.285,3.555-0.855,5.161
		c-0.569,1.608-1.383,3.009-2.438,4.201c-1.056,1.193-2.335,2.146-3.839,2.854c-1.504,0.707-3.208,1.062-5.108,1.062
		c-1.765,0-3.381-0.363-4.851-1.09s-2.603-1.712-3.397-2.956h-0.104v15.769h-6.225V37.755H260.449z M274.973,50.1
		c0-0.967-0.146-1.927-0.439-2.877c-0.295-0.951-0.735-1.807-1.323-2.567c-0.588-0.76-1.331-1.375-2.229-1.841
		c-0.899-0.467-1.953-0.701-3.164-0.701c-1.142,0-2.162,0.243-3.061,0.727c-0.898,0.484-1.669,1.107-2.309,1.867
		c-0.641,0.761-1.124,1.626-1.452,2.593c-0.329,0.969-0.493,1.937-0.493,2.905c0,0.968,0.164,1.928,0.493,2.878
		c0.328,0.952,0.812,1.808,1.452,2.567c0.64,0.761,1.408,1.375,2.309,1.842c0.898,0.467,1.919,0.699,3.061,0.699
		c1.211,0,2.265-0.24,3.164-0.726c0.898-0.483,1.643-1.106,2.229-1.868c0.588-0.76,1.028-1.625,1.323-2.593
		C274.825,52.037,274.973,51.068,274.973,50.1z"/>
	<path fill="#686A6B" d="M290.947,37.755v3.476h0.156c0.311-0.484,0.717-0.977,1.219-1.479c0.501-0.501,1.115-0.951,1.841-1.349
		c0.728-0.397,1.548-0.726,2.464-0.985s1.945-0.389,3.087-0.389c1.765,0,3.39,0.337,4.875,1.012c1.486,0.674,2.768,1.6,3.839,2.775
		c1.071,1.176,1.901,2.559,2.489,4.149c0.588,1.591,0.882,3.303,0.882,5.135c0,1.834-0.285,3.555-0.854,5.161
		c-0.57,1.608-1.385,3.009-2.438,4.201c-1.056,1.193-2.335,2.146-3.839,2.854c-1.504,0.707-3.208,1.062-5.108,1.062
		c-1.765,0-3.381-0.363-4.851-1.09s-2.603-1.712-3.397-2.956h-0.104v15.769h-6.225V37.755H290.947z M305.471,50.1
		c0-0.967-0.146-1.927-0.439-2.877c-0.295-0.951-0.735-1.807-1.323-2.567c-0.588-0.76-1.331-1.375-2.229-1.841
		c-0.899-0.467-1.953-0.701-3.164-0.701c-1.142,0-2.162,0.243-3.061,0.727c-0.898,0.484-1.669,1.107-2.309,1.867
		c-0.641,0.761-1.125,1.626-1.452,2.593c-0.329,0.969-0.493,1.937-0.493,2.905c0,0.968,0.164,1.928,0.493,2.878
		c0.327,0.952,0.812,1.808,1.452,2.567c0.64,0.761,1.408,1.375,2.309,1.842c0.898,0.467,1.919,0.699,3.061,0.699
		c1.211,0,2.265-0.24,3.164-0.726c0.898-0.483,1.643-1.106,2.229-1.868c0.588-0.76,1.028-1.625,1.323-2.593
		C305.323,52.037,305.471,51.068,305.471,50.1z"/>
</g>
</svg>
