<?xml version="1.0" encoding="UTF-8"?>
<svg width="304px" height="62px" viewBox="0 0 304 62" version="1.1" xmlns="http://www.w3.org/2000/svg" xmlns:xlink="http://www.w3.org/1999/xlink">
    <!-- Generator: Sketch 43.1 (39012) - http://www.bohemiancoding.com/sketch -->
    <title>Artboard 14</title>
    <desc>Created with Sketch.</desc>
    <defs></defs>
    <g id="Page-1" stroke="none" stroke-width="1" fill="none" fill-rule="evenodd">
        <g id="Artboard-14">
            <g id="Group" fill="#5FEAD7">
                <rect id="Rectangle-11" x="0.582733064" y="39.2058637" width="25.4200001" height="7.061729" rx="3.5308645"></rect>
                <rect id="Rectangle-11" x="73.2117647" y="39.2058637" width="25.4200001" height="7.061729" rx="3.5308645"></rect>
                <polygon id="Triangle" fill-opacity="0.18" points="32 27 42 45 22 45"></polygon>
                <polygon id="Triangle" fill-opacity="0.18" points="65 12 75 45 55 45"></polygon>
                <path d="M35.2200914,17.5117545 C37.3035334,18.3049083 38.2405344,20.392015 37.3155901,22.1683518 L26.1130168,43.6826664 C25.1868868,45.4612803 22.7429073,46.2585396 20.6637047,45.4669998 L20.6637047,45.4669998 C18.5802628,44.673846 17.6432618,42.5867392 18.5682061,40.8104025 L29.7707793,19.2960878 C30.6969094,17.5174739 33.1408889,16.7202146 35.2200914,17.5117545" id="Rectangle-11"></path>
                <path d="M33.2044213,17.3439041 C35.3966854,16.8063995 37.6819664,17.8857805 38.3110762,19.7617373 L50.9225506,57.3681826 C51.5506141,59.2410196 50.2781181,61.1960812 48.0903148,61.7324921 L48.0903148,61.7324921 C45.8980506,62.2699967 43.6127696,61.1906158 42.9836599,59.3146589 L30.3721855,21.7082136 C29.744122,19.8353766 31.016618,17.880315 33.2044213,17.3439041" id="Rectangle-11" transform="translate(40.647368, 39.538198) rotate(-2.000000) translate(-40.647368, -39.538198) "></path>
                <path d="M62.2029344,0.343170694 C64.3951985,-0.194333897 66.6836331,0.894450753 67.3116421,2.76712532 L80.3990892,41.7928845 C81.0282864,43.6691023 79.7567096,45.6269046 77.5689062,46.1633155 L77.5689062,46.1633155 C75.3766421,46.7008201 73.0882075,45.6120354 72.4601985,43.7393608 L59.3727514,4.71360163 C58.7435542,2.83738387 60.015131,0.879581571 62.2029344,0.343170694" id="Rectangle-11" transform="translate(69.885920, 23.253243) rotate(-1.000000) translate(-69.885920, -23.253243) "></path>
                <path d="M64.2077293,0.311292384 C66.4205965,0.783050391 67.7684383,2.69515359 67.2157548,4.59054228 L51.3491974,59.0037728 C50.7976168,60.8953792 48.5520863,62.0454339 46.3437218,61.5746358 L46.3437218,61.5746358 C44.1308545,61.1028778 42.7830127,59.1907746 43.3356962,57.2953859 L59.2022536,2.88215541 C59.7538342,0.990548963 61.9993647,-0.159505689 64.2077293,0.311292384" id="Rectangle-11" transform="translate(55.275726, 30.942964) rotate(-1.000000) translate(-55.275726, -30.942964) "></path>
            </g>
            <path d="M127.373047,19.1884766 L132.939453,19.1884766 L132.939453,46 L127.373047,46 L127.373047,34.9785156 L116.036133,34.9785156 L116.036133,46 L110.469727,46 L110.469727,19.1884766 L116.036133,19.1884766 L116.036133,30.1357422 L127.373047,30.1357422 L127.373047,19.1884766 Z M151.661133,26.9257812 L157.134766,26.9257812 L145.371094,54.9804688 L139.953125,54.9804688 L144.313477,45.2207031 L136.464844,26.9257812 L142.291016,26.9257812 L146.836914,39.46875 L151.661133,26.9257812 Z M171.143555,26.5546875 C172.40528,26.5546875 173.592768,26.7835264 174.706055,27.2412109 C175.819342,27.6988955 176.793453,28.3421183 177.628418,29.1708984 C178.463383,29.9996786 179.122068,31.048008 179.604492,32.315918 C180.086916,33.583828 180.328125,34.978508 180.328125,36.5 C180.328125,38.021492 180.086916,39.416172 179.604492,40.684082 C179.122068,41.951992 178.463383,43.0003214 177.628418,43.8291016 C176.793453,44.6578817 175.819342,45.3011045 174.706055,45.7587891 C173.592768,46.2164736 172.40528,46.4453125 171.143555,46.4453125 C169.88183,46.4453125 168.731451,46.2102888 167.692383,45.7402344 C166.653315,45.2701799 165.855472,44.6022179 165.298828,43.7363281 L165.298828,55.2773438 L159.955078,55.2773438 L159.955078,26.9257812 L165.020508,26.9257812 L165.168945,29.4863281 C165.688479,28.5585891 166.48323,27.838056 167.553223,27.324707 C168.623215,26.8113581 169.81998,26.5546875 171.143555,26.5546875 Z M169.9375,42.0107422 C171.384773,42.0107422 172.587723,41.5128631 173.546387,40.5170898 C174.50505,39.5213166 174.984375,38.1823001 174.984375,36.5 C174.984375,34.8176999 174.50505,33.4786834 173.546387,32.4829102 C172.587723,31.4871369 171.384773,30.9892578 169.9375,30.9892578 C168.477857,30.9892578 167.26563,31.4964142 166.300781,32.5107422 C165.335933,33.5250702 164.853516,34.8548095 164.853516,36.5 C164.853516,38.1451905 165.335933,39.4749298 166.300781,40.4892578 C167.26563,41.5035858 168.477857,42.0107422 169.9375,42.0107422 Z M202.296875,36.1845703 L202.241211,37.4648438 L188.102539,37.4648438 C188.213868,38.9863357 188.721024,40.1490845 189.624023,40.953125 C190.527023,41.7571655 191.646478,42.1591797 192.982422,42.1591797 C193.94727,42.1591797 194.785315,41.9396181 195.496582,41.5004883 C196.207849,41.0613585 196.742837,40.4212282 197.101562,39.5800781 L202,40.3037109 C201.369137,42.2210382 200.255867,43.7115832 198.660156,44.7753906 C197.064445,45.839198 195.184256,46.3710938 193.019531,46.3710938 C189.902328,46.3710938 187.425302,45.4959397 185.588379,43.7456055 C183.751456,41.9952712 182.833008,39.5677239 182.833008,36.4628906 C182.833008,33.3827971 183.754548,30.9552498 185.597656,29.1801758 C187.440764,27.4051018 189.859035,26.5175781 192.852539,26.5175781 C195.697605,26.5175781 197.979809,27.3277914 199.699219,28.9482422 C201.418628,30.568693 202.284505,32.9807783 202.296875,36.1845703 Z M192.889648,30.3027344 C190.291979,30.3027344 188.745771,31.5273315 188.250977,33.9765625 L197.008789,33.9765625 C196.872721,32.7890566 196.433597,31.879886 195.691406,31.2490234 C194.949215,30.6181609 194.015305,30.3027344 192.889648,30.3027344 Z M211.481445,29.9501953 C211.988609,29.0595659 212.823562,28.2957389 213.986328,27.6586914 C215.149094,27.021644 216.392246,26.703125 217.71582,26.703125 L217.71582,31.4716797 C215.612945,31.4716797 214.091476,31.8551394 213.151367,32.6220703 C212.211258,33.3890012 211.741211,34.7496647 211.741211,36.7041016 L211.741211,46 L206.360352,46 L206.360352,26.9257812 L211.481445,26.9257812 L211.481445,29.9501953 Z M232.040039,26.5546875 C233.301764,26.5546875 234.489252,26.7835264 235.602539,27.2412109 C236.715826,27.6988955 237.689937,28.3421183 238.524902,29.1708984 C239.359867,29.9996786 240.018552,31.048008 240.500977,32.315918 C240.983401,33.583828 241.224609,34.978508 241.224609,36.5 C241.224609,38.021492 240.983401,39.416172 240.500977,40.684082 C240.018552,41.951992 239.359867,43.0003214 238.524902,43.8291016 C237.689937,44.6578817 236.715826,45.3011045 235.602539,45.7587891 C234.489252,46.2164736 233.301764,46.4453125 232.040039,46.4453125 C230.778314,46.4453125 229.627935,46.2102888 228.588867,45.7402344 C227.549799,45.2701799 226.751956,44.6022179 226.195312,43.7363281 L226.195312,55.2773438 L220.851562,55.2773438 L220.851562,26.9257812 L225.916992,26.9257812 L226.06543,29.4863281 C226.584964,28.5585891 227.379715,27.838056 228.449707,27.324707 C229.519699,26.8113581 230.716465,26.5546875 232.040039,26.5546875 Z M230.833984,42.0107422 C232.281257,42.0107422 233.484207,41.5128631 234.442871,40.5170898 C235.401535,39.5213166 235.880859,38.1823001 235.880859,36.5 C235.880859,34.8176999 235.401535,33.4786834 234.442871,32.4829102 C233.484207,31.4871369 232.281257,30.9892578 230.833984,30.9892578 C229.374342,30.9892578 228.162114,31.4964142 227.197266,32.5107422 C226.232417,33.5250702 225.75,34.8548095 225.75,36.5 C225.75,38.1451905 226.232417,39.4749298 227.197266,40.4892578 C228.162114,41.5035858 229.374342,42.0107422 230.833984,42.0107422 Z M247.978516,24.0683594 C247.124996,24.0683594 246.395185,23.7683949 245.789062,23.168457 C245.18294,22.5685191 244.879883,21.8418011 244.879883,20.9882812 C244.879883,20.1471312 245.186032,19.4265981 245.79834,18.8266602 C246.410648,18.2267223 247.137366,17.9267578 247.978516,17.9267578 C248.807296,17.9267578 249.524737,18.2267223 250.130859,18.8266602 C250.736982,19.4265981 251.040039,20.1471312 251.040039,20.9882812 C251.040039,21.8418011 250.736982,22.5685191 250.130859,23.168457 C249.524737,23.7683949 248.807296,24.0683594 247.978516,24.0683594 Z M245.250977,46 L245.250977,26.9257812 L250.631836,26.9257812 L250.631836,46 L245.250977,46 Z M267.423828,26.5546875 C269.712251,26.5546875 271.468744,27.1267846 272.693359,28.2709961 C273.917975,29.4152075 274.530273,31.0449113 274.530273,33.1601562 L274.530273,46 L269.167969,46 L269.167969,34.3105469 C269.167969,33.1106711 268.84945,32.2324247 268.212402,31.6757812 C267.575355,31.1191378 266.755864,30.8408203 265.753906,30.8408203 C265.172523,30.8408203 264.640627,30.9212232 264.158203,31.0820312 C263.675779,31.2428393 263.230471,31.4933251 262.822266,31.8334961 C262.41406,32.1736671 262.095542,32.6529917 261.866699,33.2714844 C261.637857,33.8899771 261.517253,34.6259723 261.504883,35.4794922 L261.504883,46 L256.161133,46 L256.161133,26.9257812 L261.504883,26.9257812 L261.504883,29.0410156 C262.915046,27.3834553 264.888008,26.5546875 267.423828,26.5546875 Z M292.84375,26.9257812 L297.927734,26.9257812 L297.927734,44.5712891 C297.927734,46.3896575 297.689618,47.972975 297.213379,49.3212891 C296.73714,50.6696031 296.047531,51.7550415 295.144531,52.5776367 C294.241532,53.400232 293.183925,54.0094381 291.97168,54.4052734 C290.759434,54.8011087 289.374031,54.9990234 287.81543,54.9990234 C282.780899,54.9990234 279.502937,53.0260614 277.981445,49.0800781 L282.416016,47.1875 C282.960289,48.4368552 283.646806,49.3583955 284.475586,49.9521484 C285.304366,50.5459014 286.349603,50.8427734 287.611328,50.8427734 C290.914079,50.8427734 292.56543,48.8821811 292.56543,44.9609375 L292.56543,42.734375 C291.996416,43.5136758 291.19548,44.1414364 290.162598,44.6176758 C289.129715,45.0939151 288.000983,45.3320312 286.776367,45.3320312 C285.601231,45.3320312 284.484869,45.1062848 283.427246,44.6547852 C282.369624,44.2032855 281.444991,43.5724324 280.65332,42.762207 C279.86165,41.9519816 279.233889,40.9531309 278.77002,39.765625 C278.30615,38.5781191 278.074219,37.2916736 278.074219,35.90625 C278.074219,34.5084566 278.30615,33.2189187 278.77002,32.0375977 C279.233889,30.8562766 279.864742,29.8697956 280.662598,29.078125 C281.460453,28.2864544 282.388178,27.667971 283.445801,27.2226562 C284.503423,26.7773415 285.625971,26.5546875 286.813477,26.5546875 C288.124681,26.5546875 289.302892,26.8175429 290.348145,27.3432617 C291.393397,27.8689805 292.181963,28.5709592 292.713867,29.4492188 L292.84375,26.9257812 Z M284.642578,39.5429688 C285.595057,40.5201872 286.76399,41.0087891 288.149414,41.0087891 C289.534838,41.0087891 290.703771,40.5140023 291.65625,39.5244141 C292.608729,38.5348258 293.084961,37.3287832 293.084961,35.90625 C293.084961,34.471347 292.611821,33.2591195 291.665527,32.2695312 C290.719234,31.279943 289.547208,30.7851562 288.149414,30.7851562 C286.739251,30.7851562 285.567225,31.2706657 284.633301,32.2416992 C283.699377,33.2127327 283.232422,34.4342374 283.232422,35.90625 C283.232422,37.3535229 283.702469,38.5657503 284.642578,39.5429688 Z" id="Hyperping" fill="#151618"></path>
            <text id="." font-family="CerebriSans-Bold, Cerebri Sans" font-size="39" font-weight="bold" fill="#5FEAD7">
                <tspan x="241.699997" y="23.6999998">.</tspan>
            </text>
        </g>
    </g>
</svg>