<svg xmlns="http://www.w3.org/2000/svg" viewBox="0 0 125 125">
  <path fill="#EF7A24" d="M63.8 60.66L48.34 44.12 37.68 48.9c1.84 4.23 2.4 9 2.4 14.52 0 14.9 9.2 20.6 14.52 20.6 22.6 0 29.04-13.98 30.5-36.96l-21.3 13.6z"/>
  <path fill="#FFBE02" d="M85.66 27.57C85.66 15.8 71.7 0 57.36 0c-13.6 0-26.3 13.6-26.3 27.57 0 8.28 2.95 13.6 5.52 19.3v-.18l10.66-8.9L63.8 50.7l22.05-19.5"/>
  <path fill="#3C3C3B" d="M5.88 100c2.58.73 0 4.23 1.3 5.88 2.56-2.4 3.1-8.27 7.7-6.62l.93.92c.4 1.84.2 3.5 1 5.15 2.2-2.4 4.6-6.43 8.5-4.78 1.1.74.8 2.2.9 3.3.8 5.34 1 10.5-1.1 15.64-.3 1.4-2.5 1.6-4.2.9-.2 0-.4-.9-.2-1.5 1.5-4.2 1.5-8.8.9-13.3 0-.8-.9 0-1.1.3-1.6 2.7-3.1 5.9-4.2 9-.7 1.3-3.7 2.6-4.8.7-1.3-2.6 1-6.1-.2-9.2-1.8 3.1-2.5 6.2-4.5 9.2-.9 1.2-3.5 1.2-4 0-1.2-3.2-.1-7-.7-10.5-.3-3 .6-6.3 4.1-5.4zm32.17 17.83c-3.12-.55-6.62-.37-8.45-3.3-1.3-1.66-.74-4.8.36-6.26 3.68-4.78 9.93-3.3 9.93-3.5.3-.54.7-2.56-.4-2.75-2.6-.55-4.3.55-6.6 1.47-1.9.5-2.2-3-1.9-3.4 3.1-2.2 9.7-3.5 11.7.7 1.8 3.7-.4 7.5-.8 11.6-.2 2.7-.4 8.6-3 6.9-.6-.6-.6-1.7-1.1-1.7zm1.1-9.93c-2.57.92-6.98.2-7.16 4.05 0 2.02 6.2 2.94 6.6 2.02.3-2.2 1.4-3.68.5-6.07zm6.62-6.43c.55-1.3 3.13-1.3 3.5.2.36 1.1-.37 2.2-.37 3.3.18.18.36.73.36.55 1.48-2.4 2.76-5.15 6.07-4.23 2.4 3.8 2.2 8.8 2.4 13.2.18.7.18 2-.56 2.2-1.1.4-2.76.7-2.94-.4-.55-3.7-.2-7.2-.92-10.9-2.2 2.4-2.5 5.9-4.2 8.8-.7 1.1-2.5 1.2-3.1 0-.5-1.7-.2-3.7-.2-5.7-.1-2.2-.7-5.2 0-7.2zm27.4-4.04c.36.18 1.1.73.9 1.28-2.93 6.1-1.28 12.9-.9 19.2.18 2.4.18 5-2.03 6.3-3.5 2-8.64.2-9.93-3.7-.5-1.6 1.9-2.7 2.8-1.6 1.3 1.3 2.6 3.9 5 3.5.6-.2.8-.9.9-1.3.8-3.8 0-7.5-.7-11.4 0-.3.6-1.6-.3-1.1-1.6 1.1-3.5 1.5-5.1 1-1.2-.6-1.8-1.5-2.5-2.8-1.1-2.6-.7-5.1 1.5-7 3-2.4 7.2-4 10.7-2.2zm-9.02 6.6c.2 1.12.74 3.14 1.66 3.14 1.7.18 2.2-2.2 3.2-3.68.6-1 .8-2.6.2-3.4-.5-1.1-2.6 0-3.5.9-1.1.5-1.6 1.4-1.5 2.9zm11.4-.17c.74-2.4 2.4-3.68 2.76-4.96 1.1-2.4 4.3-1.66 5.9.18 1.1 1.3 1.9 2.76 2.2 4.4 1 3.5-.7 6.45-3.1 9.02-.9 1.1-3.3 1.1-4.4.37-3.1-2.02-4.4-5.7-3.3-9zm5.7-1.84c-.92-1.1-5.7 5.15-1.1 6.07 3.3.9 3.5-3.4 1.1-6.1zm6.8 1.84c.74-2.4 2.4-3.68 2.76-4.96 1.1-2.4 4.3-1.66 5.9.18 1.1 1.3 1.9 2.76 2.2 4.4 1 3.5-.7 6.45-3.1 9.02-.9 1.1-3.3 1.1-4.4.37-3.1-2.02-4.4-5.7-3.3-9zm5.7-1.84c-.92-1.1-5.7 5.15-1.1 6.07 3.3.9 3.5-3.4 1.1-6.1zm7.72-10.48c.92-1.65 4.23-2.2 4.4.37 0 .4-.17 1.3-.17 1.9 0 3.1.18 6.5 0 9.4-.2 4.8 1.1 9.8-.92 14.2-.55 1.3-2.2 1.3-3.5.8-.73-.3-.9-1.4-.73-2.4 1.3-4.4.92-8.8 1.1-13.4.2-3.7-1.83-7.5-.18-10.6zm21.5 10.67c.38.8-.18 2.1-.73 2.2-2.2 1.5-5.33-3.8-8.82-1.8-1.3.9.73 3 1.65 3.2 2.76 1 4.97 2.1 7 3.9 1.28 1.3.72 3.7-.2 5.2-2.4 3.9-10.47 5.9-13.05.6-.55-1.3.92-2.5 2.02-2.7 1.1 0 1.3 1.7 2.03 2 2.02 1.1 5.7 0 5.7-2.5 0-.6-1.3-1.7-2.03-2.06-2.94-1.3-6.43-2.03-7.72-4.97-1.65-3.5 5.33-7.73 8.27-6.44 2.2 1.1 4.9 1.65 5.8 3.68z"/>
</svg>
