<?xml version="1.0" encoding="UTF-8"?>
<svg width="86px" height="47px" viewBox="0 0 86 47" version="1.1" xmlns="http://www.w3.org/2000/svg" xmlns:xlink="http://www.w3.org/1999/xlink">
    <!-- Generator: Sketch 52.2 (67145) - http://www.bohemiancoding.com/sketch -->
    <title>Untitled 2</title>
    <desc>Created with Sketch.</desc>
    <g id="Page-1" stroke="none" stroke-width="1" fill="none" fill-rule="evenodd">
        <g id="namecheap-logo">
            <path d="M77.17,0 C74.3113143,0.000266613841 71.6775704,1.55065366 70.29,4.05 L70.13,4.38 L64,16.54 L56.2,31.91 L61.31,41.98 L61.59,42.53 C62.3778801,43.9236071 63.5657546,45.0487785 65,45.76 C66.4324779,45.0462486 67.6196894,43.9217051 68.41,42.53 L68.69,41.98 L84,11.77 L84.37,11.04 C85.4277734,8.61267567 85.1923418,5.81590367 83.7436666,3.59957157 C82.2949913,1.38323947 79.8277841,0.0452372037 77.18,0.04 L77.17,0 Z" id="Path" fill="#FF5100"></path>
            <path d="M29.85,14.63 L24.75,4.63 L24.47,4.08 C23.688636,2.68732777 22.5030742,1.56453098 21.07,0.86 C19.6394366,1.56343537 18.4544472,2.68220478 17.67,4.07 L17.38,4.63 L2.05,34.81 L1.68,35.53 C-0.0377056896,39.3766195 1.58267486,43.8935067 5.35385773,45.7710515 C9.1250406,47.6485963 13.705921,46.219108 15.74,42.53 L15.91,42.21 L22.08,30.05 L29.87,14.69 L29.85,14.63 Z" id="Path" fill="#FF5100"></path>
            <path d="M77.15,0 C74.2943123,0.00176074645 71.6642453,1.55223693 70.28,4.05 L70.11,4.38 L63.94,16.54 L56.13,31.91 L61.25,41.98 L61.53,42.53 C62.3149174,43.9259205 63.5036051,45.0518622 64.94,45.76 C66.3763949,45.0518622 67.5650826,43.9259205 68.35,42.53 L68.64,41.98 L84,11.77 L84.36,11.04 C85.4177734,8.61267567 85.1823418,5.81590367 83.7336666,3.59957157 C82.2849913,1.38323947 79.8177841,0.0452372037 77.17,0.04 L77.15,0 Z" id="Path" fill="#FC521F"></path>
            <path d="M29.85,14.63 L24.75,4.63 L24.47,4.08 C23.6850826,2.68407953 22.4963949,1.55813776 21.06,0.85 C21.5376035,0.616086142 22.0365586,0.428559415 22.55,0.29 C23.2037735,0.124335354 23.8755636,0.0403615883 24.55,0.04 L35.23,0.04 C38.0682046,0.0478400057 40.6852375,1.57380675 42.09,4.04 L42.37,4.59 L56.18,31.95 L61.27,41.95 L61.55,42.5 C62.3437232,43.9106609 63.5466853,45.047373 65,45.76 C63.9183628,46.28582 62.7326516,46.5625999 61.53,46.57 L50.79,46.57 C47.9548096,46.5606557 45.341458,45.034611 43.94,42.57 L43.65,42.02 L29.85,14.63 Z" id="Path" fill="#FF8C44"></path>
        </g>
    </g>
</svg>