<svg class="reply-logo" version="1.1" fill="#005AFF" xmlns="http://www.w3.org/2000/svg" xmlns:xlink="http://www.w3.org/1999/xlink" x="0px" y="0px" viewBox="0 0 300 100" style="enable-background:new 0 0 300 100;" xml:space="preserve">
	<g>
		<g>
			<path d="M99.2,22.4h18.1c6.1,0,8.9,0.5,11.3,1.6c5.6,2.5,9.2,7.9,9.2,15.3c0,6.7-3.6,13-9.5,15.3v0.2c0,0,0.8,0.8,1.9,2.8
				l11.5,20.9h-11.4l-11.1-20.9h-9.8v20.9H99.2V22.4z M118.6,48.7c5.5,0,8.9-3.2,8.9-8.9c0-5.4-2.3-8.7-10.3-8.7h-7.7v17.5H118.6z"></path>
			<path d="M166.9,37.3c11.6,0,17.9,8.5,17.9,19.1c0,1.2-0.2,3.9-0.2,3.9h-27.8c0.6,7,6.1,10.7,12.1,10.7c6.5,0,11.6-4.4,11.6-4.4
				l3.9,7.2c0,0-6.2,5.8-16.2,5.8c-13.4,0-21.7-9.6-21.7-21.1C146.4,46,154.8,37.3,166.9,37.3z M174.6,53.4c-0.2-5.5-3.6-8.4-8-8.4
				c-5.1,0-8.7,3.2-9.6,8.4H174.6z"></path>
			<path d="M193,38.2h9.2v2.9c0,1.5-0.2,2.8-0.2,2.8h0.2c0,0,3.5-6.6,13-6.6c10.9,0,17.9,8.6,17.9,21.1c0,12.8-7.8,21.1-18.4,21.1
				c-8,0-11.5-5.5-11.5-5.5h-0.2c0,0,0.2,1.4,0.2,3.5v16.9h-10V38.2z M212.8,71c5.5,0,10.1-4.5,10.1-12.5c0-7.7-4.1-12.6-10-12.6
				c-5.2,0-10.1,3.8-10.1,12.7C202.7,64.9,206.1,71,212.8,71z"></path>
			<path d="M240.7,22.4h10v42c0,4.4,1.5,5.5,4.1,5.5c0.8,0,1.5-0.1,1.5-0.1v8.8c0,0-1.5,0.2-3.2,0.2c-5.5,0-12.4-1.4-12.4-13V22.4z"></path>
			<path d="M261.6,85c0,0,2.2,1.7,4.5,1.7c2.8,0,5.5-1.7,7-5.2l1.5-3.6l-17-39.7h11.3l8.5,23.2c0.8,2.1,1.5,5.5,1.5,5.5h0.2
				c0,0,0.6-3.2,1.3-5.3l7.9-23.4h11l-18,46.4c-2.8,7.4-8.5,10.5-14.5,10.5c-4.8,0-8.4-2.6-8.4-2.6L261.6,85z"></path>
		</g>
		<path d="M68.8,20.9H8.9c-4.5,0-8.1,3.9-8.1,8.8v41c0,4.8,3.6,8.8,8.1,8.8h59.9c2.2,0,4.2-0.9,5.8-2.6c1.5-1.7,2.3-3.8,2.3-6.2v-41
			C76.9,24.8,73.3,20.9,68.8,20.9z M69.2,70.5c-0.1,0.1-0.2,0.2-0.4,0.2H8.9c-0.2,0-0.4-0.1-0.4-0.2V37.3l29.8,19.4l0.5,0.3l0.5-0.3
			l30-19.1V70.5z M38.8,47.4l-27-17.7h54.5L38.8,47.4z"></path>
	</g>
</svg>