<!DOCTYPE svg PUBLIC "-//W3C//DTD SVG 20010904//EN" "http://www.w3.org/TR/2001/REC-SVG-20010904/DTD/svg10.dtd">
<svg version="1.0" xmlns="http://www.w3.org/2000/svg" width="461px" height="112px" viewBox="0 0 4610 1120" preserveAspectRatio="xMidYMid meet">
<g id="layer101" fill="#5468ff" stroke="none">
 <path d="M2722 678 l3 -373 63 -3 c51 -2 62 0 62 13 0 19 -2 19 55 -6 121 -54 270 21 310 155 45 149 -14 303 -140 369 -42 22 -143 29 -197 14 l-28 -7 0 105 0 105 -65 0 -65 0 2 -372z m306 42 c90 -55 95 -236 7 -290 -42 -26 -110 -26 -152 0 l-33 20 0 130 0 131 33 14 c46 20 107 18 145 -5z"/>
 <path d="M142 853 c-41 -20 -80 -69 -88 -111 l-6 -32 221 0 221 0 0 80 0 80 -157 0 c-126 0 -165 -4 -191 -17z"/>
 <path d="M683 851 c-22 -4 -60 -16 -83 -26 -42 -19 -42 -19 -36 -63 3 -25 6 -54 6 -64 0 -19 1 -19 35 2 75 46 210 64 253 34 28 -19 29 -60 2 -74 -12 -6 -55 -18 -97 -26 -141 -27 -200 -84 -191 -184 10 -100 88 -154 223 -155 83 0 134 13 173 43 22 17 22 18 6 67 -9 28 -19 52 -20 54 -2 3 -14 -5 -27 -16 -68 -63 -227 -53 -227 14 0 21 44 43 121 59 138 28 189 74 189 169 0 103 -76 163 -212 170 -40 2 -92 0 -115 -4z"/>
 <path d="M1263 850 c-89 -19 -165 -75 -205 -154 -29 -57 -30 -172 -1 -237 91 -204 391 -226 490 -36 9 18 18 64 21 103 4 62 2 72 -14 78 -10 4 -100 10 -201 13 -101 3 -183 10 -183 14 0 17 56 73 87 85 45 19 173 18 223 -2 23 -9 43 -15 45 -12 3 2 1 31 -3 63 -7 56 -8 59 -44 71 -51 17 -164 25 -215 14z m167 -346 c0 -9 -9 -32 -20 -50 -36 -58 -125 -69 -184 -23 -23 18 -56 67 -56 84 0 3 59 5 130 5 114 0 130 -2 130 -16z"/>
 <path d="M2335 850 c-85 -22 -134 -60 -173 -134 -22 -43 -26 -64 -26 -131 0 -95 15 -135 73 -198 58 -63 126 -91 224 -91 l77 -1 0 -112 0 -113 65 0 65 0 0 323 c0 295 2 325 18 352 l19 30 -48 43 c-46 41 -47 42 -69 24 -21 -17 -24 -17 -74 0 -54 18 -101 21 -151 8z m165 -125 c14 -9 13 -292 -1 -300 -23 -15 -129 -7 -161 12 -116 68 -100 245 27 292 29 10 116 8 135 -4z"/>
 <path d="M3820 851 c-200 -42 -275 -304 -135 -469 15 -18 51 -45 79 -60 70 -36 188 -38 258 -3 121 59 176 203 132 350 -19 64 -81 136 -141 163 -47 21 -141 30 -193 19z m147 -131 c94 -57 89 -240 -7 -292 -74 -39 -160 -13 -197 62 -29 55 -29 111 -2 167 37 76 136 106 206 63z"/>
 <path d="M4350 849 c-89 -27 -109 -78 -110 -276 l0 -153 -40 0 -40 0 0 -60 0 -60 40 0 40 0 0 -75 0 -76 63 3 62 3 3 73 3 72 69 0 70 0 0 60 0 60 -70 0 -70 0 0 133 c0 164 6 177 84 177 28 0 57 -5 64 -12 17 -17 20 -10 23 52 4 50 2 56 -22 67 -37 18 -128 24 -169 12z"/>
 <path d="M1620 575 l0 -275 65 0 c58 0 65 2 65 20 0 25 2 25 42 0 66 -40 164 -35 223 12 51 40 64 88 65 238 1 74 5 168 9 208 l7 72 -68 0 -68 0 -1 -167 c0 -184 -8 -225 -51 -256 -35 -26 -90 -16 -130 23 l-28 28 0 186 0 186 -65 0 -65 0 0 -275z"/>
 <path d="M3259 846 c-2 -2 -3 -126 -1 -276 l3 -271 62 3 62 3 3 273 2 272 -63 0 c-35 0 -66 -2 -68 -4z"/>
 <path d="M3450 488 l-1 -363 -22 25 c-12 14 -31 38 -42 53 l-20 27 -58 -41 c-57 -41 -57 -41 -41 -67 8 -15 27 -42 42 -60 l27 -32 58 46 c56 45 57 45 57 20 0 -25 2 -26 65 -26 l65 0 0 390 0 390 -65 0 -65 0 0 -362z"/>
 <path d="M142 643 c-41 -20 -80 -69 -88 -111 l-6 -32 221 0 221 0 0 80 0 80 -157 0 c-126 0 -165 -4 -191 -17z"/>
 <path d="M142 433 c-41 -20 -80 -69 -88 -111 l-6 -32 221 0 221 0 0 80 0 80 -157 0 c-126 0 -165 -4 -191 -17z"/>
 </g>

</svg>