<svg xmlns="http://www.w3.org/2000/svg" width="120" height="22"><g fill="none" fill-rule="evenodd"><path fill="#1B81F7" d="M0 1.994C0 .893.893 0 1.996 0h22.86c1.103 0 1.997.896 1.997 1.994v17.83a1.995 1.995 0 0 1-1.996 1.994H1.997A1.997 1.997 0 0 1 0 19.824V1.994zm1.676.677v16.476c0 .537.452.993 1.01.993h21.477a.999.999 0 0 0 1.01-.993V2.671a1.01 1.01 0 0 0-1.01-.993H2.686a.999.999 0 0 0-1.01.993zm.841 7.562a.995.995 0 0 1 .991-1.002H8.24c.547 0 .99.445.99 1.002v9.068H2.518v-9.068zm7.553-3.35c0-.557.44-1.009.99-1.009h4.733c.547 0 .99.447.99 1.01V19.3H10.07V6.883zm7.552-3.366c0-.552.44-1 .99-1h4.733c.547 0 .99.45.99 1v15.784h-6.713V3.517zm22.462 10.265c0 1.108-.404 1.981-1.213 2.62-.808.637-1.933.956-3.374.956-1.328 0-2.502-.246-3.524-.739v-2.417c.84.37 1.55.63 2.132.78a6.39 6.39 0 0 0 1.596.227c.579 0 1.023-.109 1.332-.327.31-.218.464-.543.464-.974 0-.24-.068-.454-.205-.642a2.274 2.274 0 0 0-.6-.541c-.263-.174-.801-.45-1.612-.831-.76-.353-1.33-.691-1.711-1.016a3.822 3.822 0 0 1-.91-1.133c-.228-.43-.341-.935-.341-1.51 0-1.086.373-1.94 1.12-2.56.745-.622 1.776-.933 3.093-.933.647 0 1.264.076 1.85.227.588.151 1.202.364 1.843.638l-.85 2.023c-.664-.269-1.213-.456-1.647-.563a5.37 5.37 0 0 0-1.281-.16c-.5 0-.883.116-1.15.345-.266.23-.4.529-.4.898 0 .23.055.43.162.6.108.171.28.336.515.496.236.159.793.446 1.673.86 1.163.548 1.96 1.098 2.391 1.65.431.55.647 1.226.647 2.026zm9.421 3.408H42.34V4.92h7.166v2.13h-4.527v2.694h4.213v2.132h-4.213v3.164h4.527v2.15z"/><path fill="#0B0F14" fill-opacity=".94" d="M56.302 10.626h1.413c.948 0 1.634-.173 2.06-.52.425-.347.638-.862.638-1.545 0-.693-.23-1.191-.69-1.494-.459-.302-1.151-.453-2.076-.453h-1.345v4.012zm0 1.662v4.902h-2.034V4.92h3.515c1.606 0 2.795.296 3.566.89.772.593 1.158 1.488 1.158 2.685 0 1.528-.806 2.616-2.417 3.265l3.515 5.431H61.29l-2.98-4.902h-2.008zm14.65 4.902l-.4-1.293h-.068c-.454.566-.911.95-1.37 1.155-.46.204-1.05.306-1.771.306-.925 0-1.647-.246-2.166-.739-.52-.492-.779-1.189-.779-2.09 0-.957.36-1.678 1.081-2.165.72-.487 1.819-.753 3.294-.798l1.625-.05v-.495c0-.593-.14-1.037-.42-1.33-.282-.294-.717-.441-1.307-.441-.483 0-.945.07-1.388.21-.442.14-.868.305-1.276.495l-.647-1.41a7.024 7.024 0 0 1 1.677-.6 7.818 7.818 0 0 1 1.719-.206c1.197 0 2.1.257 2.71.772.61.515.915 1.323.915 2.426v6.253h-1.43zm-2.98-1.343c.727 0 1.31-.2 1.75-.6.44-.4.66-.961.66-1.683v-.806l-1.21.05c-.941.034-1.626.19-2.055.466-.428.277-.642.701-.642 1.272 0 .414.125.735.374.961.25.227.625.34 1.124.34zM83.32 17.19h-2.01v-5.708c0-.716-.146-1.25-.438-1.603-.292-.352-.756-.529-1.391-.529-.846 0-1.464.247-1.856.74-.391.492-.587 1.317-.587 2.475v4.625h-2V7.907h1.566l.28 1.217h.103A2.77 2.77 0 0 1 78.195 8.1a4.11 4.11 0 0 1 1.737-.361c2.258 0 3.387 1.133 3.387 3.4v6.051zm4.58-4.902l1.133-1.393 2.842-2.988h2.307l-3.787 3.987 4.025 5.296h-2.349l-3.021-4.07-1.098.889v3.181h-1.983V4.13h1.983v6.37l-.102 1.788h.05zm9.901 4.902h-2V7.907h2v9.283zm-2.12-11.743c0-.352.099-.623.294-.814.196-.19.476-.285.839-.285.352 0 .625.095.821.285.196.19.294.462.294.814 0 .336-.098.6-.294.794-.196.193-.47.29-.821.29-.363 0-.643-.097-.839-.29-.195-.193-.293-.458-.293-.794zm13.127 11.743h-2.009v-5.708c0-.716-.146-1.25-.438-1.603-.292-.352-.756-.529-1.392-.529-.845 0-1.464.247-1.855.74-.392.492-.587 1.317-.587 2.475v4.625h-2V7.907h1.566l.28 1.217h.103a2.765 2.765 0 0 1 1.208-1.024c.522-.24 1.1-.361 1.736-.361 2.259 0 3.388 1.133 3.388 3.4v6.051zm10.598-9.283V8.99l-1.609.293a2.812 2.812 0 0 1 .51 1.628c0 .958-.334 1.71-1.003 2.259-.67.548-1.592.822-2.767.822-.3 0-.573-.022-.817-.067-.43.263-.646.57-.646.923 0 .213.1.372.302.479.201.106.571.16 1.11.16h1.643c1.038 0 1.827.217 2.366.654.539.436.809 1.066.809 1.888 0 1.052-.44 1.864-1.32 2.435-.88.57-2.15.856-3.812.856-1.283 0-2.262-.224-2.937-.672-.675-.447-1.012-1.085-1.012-1.913 0-.571.182-1.051.548-1.44.366-.389.878-.659 1.537-.81a1.499 1.499 0 0 1-.66-.541 1.354 1.354 0 0 1-.26-.785c0-.347.1-.64.298-.881.199-.241.494-.479.885-.714a2.612 2.612 0 0 1-1.187-1.011c-.303-.468-.455-1.015-.455-1.641 0-1.008.322-1.788.966-2.342.644-.554 1.562-.831 2.753-.831.267 0 .546.018.838.054.293.037.513.075.66.114h3.26zm-7.396 10.727c0 .425.194.752.583.982.388.23.935.344 1.638.344 1.09 0 1.9-.154 2.434-.462.534-.307.8-.716.8-1.225 0-.403-.146-.69-.438-.86-.292-.171-.836-.256-1.63-.256h-1.515c-.573 0-1.028.132-1.366.398-.337.266-.506.626-.506 1.079zm.86-7.722c0 .582.151 1.03.455 1.343.303.313.739.47 1.306.47 1.158 0 1.736-.61 1.736-1.83 0-.604-.143-1.07-.43-1.398-.286-.327-.721-.49-1.306-.49-.579 0-1.017.162-1.315.486-.298.325-.447.798-.447 1.419z"/></g></svg>