<?xml version="1.0" encoding="utf-8"?>
<!-- Generator: Adobe Illustrator 17.0.0, SVG Export Plug-In . SVG Version: 6.00 Build 0)  -->
<!DOCTYPE svg PUBLIC "-//W3C//DTD SVG 1.1//EN" "http://www.w3.org/Graphics/SVG/1.1/DTD/svg11.dtd">
<svg version="1.1" id="Layer_1" xmlns="http://www.w3.org/2000/svg" xmlns:xlink="http://www.w3.org/1999/xlink" x="0px" y="0px"
	 width="140px" height="32px" viewBox="0 0 140 32" enable-background="new 0 0 140 32" xml:space="preserve">
<g>
	<g>
		<path d="M43.881,12.732c-1.86,0-3.336-0.85-4.286-1.842l-1.577,2.247c1.274,1.275,3.134,2.145,5.742,2.145
			c3.619,0,5.398-1.862,5.398-4.331c0-5.04-7.743-3.603-7.743-5.728c0-0.81,0.687-1.336,1.9-1.336c1.375,0,2.83,0.466,3.922,1.478
			l1.597-2.145c-1.334-1.235-3.113-1.882-5.257-1.882c-3.174,0-5.115,1.862-5.115,4.109c0,5.08,7.764,3.441,7.764,5.789
			C46.226,12.023,45.478,12.732,43.881,12.732z M63.25,9.635V1.539h-2.932v8.015c0,1.882-1.072,3.178-3.154,3.178
			c-2.082,0-3.174-1.295-3.174-3.178V1.539h-2.911v8.096c0,3.34,1.981,5.647,6.085,5.647S63.25,12.974,63.25,9.635z M72.227,1.539
			h-6.308v13.5h2.871v-4.817h3.437c2.911,0,4.529-1.984,4.529-4.332C76.755,3.522,75.158,1.539,72.227,1.539z M71.822,7.692H68.79
			V4.069h3.033c1.132,0,2.002,0.688,2.002,1.822C73.824,7.004,72.954,7.692,71.822,7.692z M81.426,10.222h3.437
			c2.911,0,4.529-1.984,4.529-4.332c0-2.368-1.597-4.352-4.529-4.352h-6.308v13.5h2.871V10.222z M81.426,4.069h3.032
			c1.132,0,2.002,0.688,2.002,1.822c0,1.113-0.869,1.801-2.002,1.801h-3.032V4.069z M97.601,1.316c-4.084,0-7.056,2.915-7.056,6.983
			c0,4.068,2.972,6.983,7.056,6.983c4.064,0,7.036-2.914,7.036-6.983C104.637,4.231,101.665,1.316,97.601,1.316z M97.601,12.732
			c-2.507,0-4.104-1.923-4.104-4.433c0-2.53,1.597-4.433,4.104-4.433c2.487,0,4.084,1.903,4.084,4.433
			C101.685,10.809,100.088,12.732,97.601,12.732z M117.516,5.89c0-2.51-1.739-4.352-4.549-4.352h-6.308v13.5h2.871v-4.797h2.103
			l2.648,4.797h3.316l-3.053-5.141C116,9.554,117.516,8.258,117.516,5.89z M112.563,7.712h-3.033V4.069h3.033
			c1.132,0,2.002,0.688,2.002,1.801C114.564,7.024,113.695,7.712,112.563,7.712z M118.628,1.539v2.53h3.942v10.97h2.891V4.069h3.922
			v-2.53H118.628z M48.187,23.335h-6.368v-5.303h-2.871v13.5h2.871v-5.688h6.368v5.688h2.891v-13.5h-2.891V23.335z M53.727,31.533
			h9.543v-2.53h-6.672v-3.076h6.53v-2.53h-6.53v-2.834h6.672v-2.53h-9.543V31.533z M76.371,22.384c0-2.51-1.739-4.352-4.549-4.352
			h-6.308v13.5h2.871v-4.797h2.103l2.648,4.797h3.316l-3.053-5.141C74.855,26.048,76.371,24.752,76.371,22.384z M71.418,24.206
			h-3.033v-3.643h3.033c1.132,0,2.002,0.688,2.002,1.801C73.419,23.518,72.55,24.206,71.418,24.206z M84.923,17.81
			c-4.084,0-7.056,2.914-7.056,6.983c0,4.068,2.972,6.983,7.056,6.983c4.064,0,7.036-2.915,7.036-6.983
			C91.959,20.724,88.987,17.81,84.923,17.81z M84.923,29.225c-2.507,0-4.104-1.923-4.104-4.432c0-2.53,1.597-4.433,4.104-4.433
			c2.487,0,4.084,1.902,4.084,4.433C89.008,27.303,87.41,29.225,84.923,29.225z M0,31.587h31.614V1.316H0V31.587z M2.88,21.497
			h17.216v-1.442H2.88V4.199h25.855v7.207H11.519v1.442h17.215v15.856H2.88V21.497z"/>
	</g>
</g>
</svg>
